<?xml version="1.0" encoding="utf-8"?>
<!-- Generator: Adobe Illustrator 16.2.1, SVG Export Plug-In . SVG Version: 6.00 Build 0)  -->
<!DOCTYPE svg PUBLIC "-//W3C//DTD SVG 1.1//EN" "http://www.w3.org/Graphics/SVG/1.1/DTD/svg11.dtd">
<svg version="1.1" id="Layer_4" xmlns="http://www.w3.org/2000/svg" xmlns:xlink="http://www.w3.org/1999/xlink" x="0px" y="0px"
	 width="188.667px" height="186.667px" viewBox="0 0 188.667 186.667" enable-background="new 0 0 188.667 186.667"
	 xml:space="preserve">
<g>
	<g>
		<path fill="#FFFFFF" stroke="#7997AB" stroke-width="2" stroke-miterlimit="10" d="M183.016,103.366
			c1.091-0.137,1.984-1.148,1.984-2.248V86.219c0-1.101-0.893-2.112-1.984-2.248l-19.689-2.462
			c-1.091-0.137-2.183-1.126-2.425-2.199l-1.643-6.162c-0.325-1.051,0.127-2.453,1.004-3.117l15.812-11.97
			c0.877-0.664,1.145-1.986,0.595-2.938l-7.45-12.904c-0.55-0.953-1.829-1.383-2.843-0.955l-18.291,7.717
			c-1.014,0.428-2.455,0.117-3.202-0.689l-4.502-4.502c-0.807-0.748-1.117-2.188-0.689-3.202l7.719-18.291
			c0.428-1.014-0.001-2.293-0.954-2.843l-12.906-7.451c-0.953-0.55-2.275-0.282-2.939,0.595l-11.97,15.812
			c-0.664,0.877-2.067,1.329-3.118,1.003l-6.164-1.643c-1.073-0.243-2.062-1.334-2.199-2.426l-2.462-19.689
			c-0.136-1.092-1.148-1.984-2.248-1.984h-14.9c-1.1,0-2.112,0.893-2.248,1.984L82.84,25.343c-0.136,1.092-1.126,2.183-2.199,2.426
			l-6.164,1.643c-1.051,0.326-2.454-0.126-3.118-1.003L59.392,12.596c-0.664-0.877-1.986-1.145-2.939-0.595l-12.904,7.451
			c-0.953,0.55-1.382,1.829-0.955,2.843l7.717,18.29c0.428,1.014,0.117,2.455-0.69,3.202l-4.502,4.503
			c-0.748,0.807-2.188,1.117-3.202,0.689l-18.289-7.717c-1.014-0.428-2.293,0.002-2.843,0.955l-7.451,12.904
			c-0.55,0.952-0.282,2.274,0.595,2.938l15.812,11.968c0.877,0.664,1.329,2.066,1.004,3.117l-1.644,6.164
			c-0.243,1.073-1.334,2.062-2.425,2.199L6.984,83.971C5.893,84.106,5,85.118,5,86.219v14.899c0,1.1,0.893,2.111,1.984,2.248
			l19.689,2.462c1.091,0.136,2.183,1.126,2.425,2.198l1.644,6.166c0.325,1.051-0.127,2.453-1.004,3.117l-15.812,11.969
			c-0.877,0.664-1.145,1.986-0.595,2.939l7.451,12.904c0.55,0.952,1.829,1.382,2.843,0.954l18.29-7.717
			c1.014-0.428,2.455-0.117,3.202,0.69l4.502,4.502c0.807,0.748,1.117,2.188,0.69,3.202l-7.717,18.289
			c-0.427,1.014,0.002,2.293,0.955,2.843l12.906,7.451c0.953,0.55,2.275,0.282,2.939-0.595l11.967-15.811
			c0.664-0.877,2.067-1.329,3.118-1.005l6.162,1.643c1.073,0.243,2.062,1.334,2.199,2.426l2.462,19.689
			c0.136,1.092,1.148,1.984,2.248,1.984h14.9c1.1,0,2.112-0.893,2.248-1.984l2.462-19.689c0.136-1.092,1.126-2.183,2.199-2.426
			l6.164-1.644c1.051-0.325,2.454,0.127,3.118,1.004l11.969,15.812c0.664,0.877,1.986,1.145,2.939,0.595l12.904-7.451
			c0.953-0.55,1.382-1.829,0.955-2.843l-7.717-18.291c-0.428-1.014-0.117-2.454,0.69-3.202l4.502-4.502
			c0.748-0.808,2.188-1.118,3.202-0.69l18.292,7.719c1.014,0.428,2.293-0.002,2.843-0.954l7.45-12.904
			c0.55-0.953,0.282-2.275-0.595-2.939l-15.812-11.969c-0.877-0.664-1.329-2.066-1.004-3.117l1.643-6.166
			c0.243-1.072,1.334-2.062,2.425-2.198L183.016,103.366z"/>
	</g>
	<circle fill="#FFFFFF" stroke="#B0D4E1" stroke-width="2" stroke-miterlimit="10" cx="95" cy="93.669" r="31.5"/>
	<circle fill="none" stroke="#B0D4E1" stroke-miterlimit="10" cx="95" cy="93.669" r="27"/>
</g>
</svg>
