<?xml version="1.0" encoding="utf-8"?>
<!-- Generator: Adobe Illustrator 16.0.0, SVG Export Plug-In . SVG Version: 6.00 Build 0)  -->
<!DOCTYPE svg PUBLIC "-//W3C//DTD SVG 1.1//EN" "http://www.w3.org/Graphics/SVG/1.1/DTD/svg11.dtd">
<svg version="1.1" id="Layer_1" xmlns="http://www.w3.org/2000/svg" xmlns:xlink="http://www.w3.org/1999/xlink" x="0px" y="0px"
	 width="68px" height="71px" viewBox="0 0 68 71" enable-background="new 0 0 68 71" xml:space="preserve">
<path fill="#B0D4E1" d="M54.7,48.537l8.008,8.776c-6.402,8.063-16.301,13.229-27.396,13.229c-19.341,0-35-15.68-35-35.001
	c0-19.327,15.659-34.999,35-34.999c11.096,0,20.994,5.178,27.396,13.245l-8.012,8.762c-4.188-6.236-11.297-10.349-19.385-10.349
	c-12.897,0-23.343,10.446-23.343,23.341c0,12.887,10.446,23.346,23.343,23.346c8.088,0,15.197-4.102,19.385-10.353L54.7,48.537z
	 M67.688,35.551l-13-13l-7.84,7.847c-1.977-4.404-6.389-7.468-11.516-7.468c-6.99,0-12.658,5.656-12.658,12.641
	c0,6.978,5.668,12.651,12.658,12.651c5.127,0,9.57-3.08,11.543-7.52l7.812,7.849L67.688,35.551z"/>
</svg>
