<?xml version="1.0" encoding="utf-8"?>
<!-- Generator: Adobe Illustrator 16.2.1, SVG Export Plug-In . SVG Version: 6.00 Build 0)  -->
<!DOCTYPE svg PUBLIC "-//W3C//DTD SVG 1.1//EN" "http://www.w3.org/Graphics/SVG/1.1/DTD/svg11.dtd">
<svg version="1.1" id="Layer_4" xmlns="http://www.w3.org/2000/svg" xmlns:xlink="http://www.w3.org/1999/xlink" x="0px" y="0px"
	 width="134px" height="134px" viewBox="0 0 134 134" enable-background="new 0 0 134 134" xml:space="preserve">
<g>
	<path fill="#FFFFFF" stroke="#7997AB" stroke-width="2" stroke-miterlimit="10" d="M129.332,74.416v-15.5l-20.591-4.219
		c-0.87-2.98-1.8-5.829-3.267-8.501l12.053-17.892l-10.896-10.959l-17.86,11.928c-2.672-1.467-5.505-2.146-8.485-3.018l-4.203-20.59
		h-15.5l-4.218,20.59c-2.981,0.871-5.83,1.801-8.502,3.267L29.972,17.471l-10.96,10.897l11.927,17.859
		c-1.466,2.672-3.146,5.505-4.017,8.486l-21.59,4.202v15.5l21.59,4.218c0.871,2.981,2.301,5.83,3.767,8.502l-11.802,17.891
		l11.022,10.96l17.922-11.927c2.672,1.466,5.536,3.146,8.518,4.017l4.233,21.59h15.5l4.219-21.59
		c2.98-0.871,5.829-2.301,8.501-3.768l17.892,11.803l10.959-11.021l-11.928-17.922c1.467-2.673,2.146-5.537,3.017-8.518
		L129.332,74.416z"/>
	<circle fill="#FFFFFF" stroke="#B0D4E1" stroke-width="2" stroke-miterlimit="10" cx="67.332" cy="66.167" r="20"/>
	<circle fill="none" stroke="#B0D4E1" stroke-miterlimit="10" cx="67.332" cy="66.167" r="16"/>
</g>
</svg>
